<?xml version="1.0" ?><!DOCTYPE svg  PUBLIC '-//W3C//DTD SVG 1.1//EN'  'http://www.w3.org/Graphics/SVG/1.1/DTD/svg11.dtd'><svg enable-background="new 0 0 100 100" height="100px" id="Layer_1" version="1.1" viewBox="0 0 100 100" width="100px" xml:space="preserve" xmlns="http://www.w3.org/2000/svg" xmlns:xlink="http://www.w3.org/1999/xlink"><g><defs><rect height="100" id="SVGID_1_" width="100"/></defs><path d="M50.369,50c0-8.773,5.84-13.956,13.178-13.956c5.041,0,9.383,1.844,11.93,6.479l-5.988,3.14   c-1.398-2.991-3.795-3.639-4.993-3.639c-4.44,0-6.04,3.44-6.04,7.976c0,4.537,1.898,7.977,6.04,7.977   c2.397,0,4.294-0.898,5.54-3.89l5.593,2.843c-2.396,4.235-6.739,7.026-11.83,7.026C55.859,63.957,50.369,58.924,50.369,50    M37.801,63.957c5.09,0,9.435-2.791,11.83-7.027l-5.59-2.842c-1.249,2.99-3.146,3.889-5.541,3.889c-4.144,0-6.04-3.438-6.04-7.976   c0-4.535,1.598-7.976,6.04-7.976c1.197,0,3.593,0.648,4.992,3.639l5.987-3.14c-2.544-4.636-6.888-6.479-11.929-6.479   c-7.338,0-13.178,5.183-13.178,13.956C24.373,58.924,29.861,63.957,37.801,63.957 M18.209,81.688C9.565,73.055,5,61.959,5,50   c0-11.835,4.689-23.177,13.331-31.931C26.728,9.563,37.593,5,49.938,5s23.457,4.563,32.101,13.192C90.559,26.7,95,37.796,95,50   c0,12.33-4.441,23.301-12.839,31.563C73.271,90.314,61.791,95,49.938,95C38.087,95,26.85,90.314,18.209,81.688 M13.146,50   c0,9.618,3.951,18.863,10.987,25.893C31.17,82.919,40.309,86.74,50.063,86.74c9.628,0,19.012-3.821,26.298-10.973   C83.271,68.986,86.854,60.109,86.854,50c0-9.986-3.703-19.108-10.617-26.014c-7.039-7.026-16.048-10.848-26.173-10.848   c-10.125,0-19.016,3.699-25.93,10.725C17.098,31.014,13.146,40.261,13.146,50"/></g></svg>